<svg xmlns="http://www.w3.org/2000/svg" viewBox="0 0 500 500"><path fill="none" style="stroke-width:1" d="M73.116 36.011h380v380h-380z"/><g fill="none" stroke="currentColor" stroke-linecap="round" stroke-linejoin="round" stroke-width="1.5"><path d="M5.5 10.5v3c0 3.771 0 5.657 1.172 6.828S9.729 21.5 13.5 21.5s5.657 0 6.828-1.172S21.5 17.271 21.5 13.5v-3c0-3.771 0-5.657-1.172-6.828S17.271 2.5 13.5 2.5s-5.657 0-6.828 1.172S5.5 6.729 5.5 10.5" style="stroke:#005f02" transform="matrix(17.94737 0 0 17.94746 27.5 34.63)"/><path d="M5.5 10.5H4a1.5 1.5 0 1 1 0-3h3.5m-2 10H4a1.5 1.5 0 0 1 0-3h3.5m3.5-4h4m-4-4h6.5" style="stroke:#005f02" transform="matrix(17.94737 0 0 17.94746 27.5 34.63)"/></g><path fill="none" style="stroke-width:1" d="M172.417 210.983h200v200h-200z"/><path fill="none" style="stroke-width:1" d="M183.546 241.926h170v170h-170z"/><path d="M268.546 263.176a58.73 58.73 0 0 0-38.186 14.259c-8.139 7.012-14.036 16.15-15.555 25.319-17.808 3.931-31.259 19.443-31.259 38.176 0 21.76 18.148 39.121 40.173 39.121h94.626c19.285 0 35.201-15.194 35.201-34.287 0-17.383-13.196-31.545-30.111-33.937-2.583-27.412-26.308-48.651-54.889-48.651m5.313 42.5v15.938h15.937c4.09 0 6.64 4.42 4.6 7.968a5.34 5.34 0 0 1-4.6 2.657h-15.937v15.937c0 4.08-4.432 6.64-7.969 4.6a5.32 5.32 0 0 1-2.656-4.6v-15.937h-15.938c-4.091 0-6.651-4.432-4.601-7.969a5.3 5.3 0 0 1 4.601-2.656h15.938v-15.938c0-4.091 4.42-6.651 7.968-4.601a5.32 5.32 0 0 1 2.657 4.601" style="stroke-width:1;fill:#005f02"/></svg>